<?xml version="1.0" encoding="utf-8"?>
<!-- Generator: Adobe Illustrator 16.0.0, SVG Export Plug-In . SVG Version: 6.00 Build 0)  -->
<!DOCTYPE svg PUBLIC "-//W3C//DTD SVG 1.1//EN" "http://www.w3.org/Graphics/SVG/1.1/DTD/svg11.dtd">
<svg version="1.1" id="Layer_1" xmlns="http://www.w3.org/2000/svg" xmlns:xlink="http://www.w3.org/1999/xlink" x="0px" y="0px"
	 width="44px" height="44px" viewBox="0 0 44 44" enable-background="new 0 0 44 44" xml:space="preserve">
<g>
	<g>
		<g>
			<g>
				<defs>
					<rect id="SVGID_1_" x="8.465" y="6.148" width="25.54" height="25.54"/>
				</defs>
				<clipPath id="SVGID_2_">
					<use xlink:href="#SVGID_1_"  overflow="visible"/>
				</clipPath>
				<path clip-path="url(#SVGID_2_)" fill="#DADBE1" d="M34.005,18.919c0,7.053-5.719,12.77-12.771,12.77
					c-7.052,0-12.77-5.717-12.77-12.77c0-7.052,5.718-12.77,12.77-12.77C28.286,6.149,34.005,11.867,34.005,18.919"/>
			</g>
		</g>
	</g>
	<rect x="19.124" y="5" fill="#FFFFFF" width="3.726" height="34"/>
	
		<rect x="19.124" y="5" fill="none" stroke="#3B3E45" stroke-width="1.5" stroke-linecap="round" stroke-linejoin="round" stroke-miterlimit="10" width="3.726" height="34"/>
	<polygon fill="#FFFFFF" points="34.266,16.831 22.85,16.831 22.85,8.372 34.266,8.372 37.465,12.603 	"/>
	
		<polygon fill="none" stroke="#3B3E45" stroke-width="1.5" stroke-linecap="round" stroke-linejoin="round" stroke-miterlimit="10" points="
		34.266,16.831 22.85,16.831 22.85,8.372 34.266,8.372 37.465,12.603 	"/>
	<polygon fill="#FFFFFF" points="36.291,27.457 22.85,27.457 22.85,18.999 36.291,18.999 39.491,23.228 	"/>
	
		<polygon fill="none" stroke="#3B3E45" stroke-width="1.5" stroke-linecap="round" stroke-linejoin="round" stroke-miterlimit="10" points="
		36.291,27.457 22.85,27.457 22.85,18.999 36.291,18.999 39.491,23.228 	"/>
	<polygon fill="#FFFFFF" points="7.707,14.202 19.123,14.202 19.123,22.66 7.707,22.66 4.509,18.431 	"/>
	
		<polygon fill="none" stroke="#3B3E45" stroke-width="1.5" stroke-linecap="round" stroke-linejoin="round" stroke-miterlimit="10" points="
		7.707,14.202 19.123,14.202 19.123,22.66 7.707,22.66 4.509,18.431 	"/>
	<line fill="none" x1="14.131" y1="39" x2="27.844" y2="39"/>
	
		<line fill="none" stroke="#3B3E45" stroke-width="1.5" stroke-linecap="round" stroke-linejoin="round" stroke-miterlimit="10" x1="14.131" y1="39" x2="27.844" y2="39"/>
	<line fill="none" x1="27.296" y1="23.228" x2="27.808" y2="23.228"/>
	
		<line fill="none" stroke="#3B3E45" stroke-width="1.5" stroke-linecap="round" stroke-linejoin="round" stroke-miterlimit="10" x1="27.296" y1="23.228" x2="27.808" y2="23.228"/>
	<line fill="none" x1="29.901" y1="23.228" x2="30.413" y2="23.228"/>
	
		<line fill="none" stroke="#3B3E45" stroke-width="1.5" stroke-linecap="round" stroke-linejoin="round" stroke-miterlimit="10" x1="29.901" y1="23.228" x2="30.413" y2="23.228"/>
	<line fill="none" x1="32.508" y1="23.228" x2="33.02" y2="23.228"/>
	
		<line fill="none" stroke="#3B3E45" stroke-width="1.5" stroke-linecap="round" stroke-linejoin="round" stroke-miterlimit="10" x1="32.508" y1="23.228" x2="33.02" y2="23.228"/>
	<line fill="none" x1="26.561" y1="12.603" x2="27.072" y2="12.603"/>
	
		<line fill="none" stroke="#3B3E45" stroke-width="1.5" stroke-linecap="round" stroke-linejoin="round" stroke-miterlimit="10" x1="26.561" y1="12.603" x2="27.072" y2="12.603"/>
	<line fill="none" x1="29.167" y1="12.603" x2="29.679" y2="12.603"/>
	
		<line fill="none" stroke="#3B3E45" stroke-width="1.5" stroke-linecap="round" stroke-linejoin="round" stroke-miterlimit="10" x1="29.167" y1="12.603" x2="29.679" y2="12.603"/>
	<line fill="none" x1="31.771" y1="12.603" x2="32.285" y2="12.603"/>
	
		<line fill="none" stroke="#3B3E45" stroke-width="1.5" stroke-linecap="round" stroke-linejoin="round" stroke-miterlimit="10" x1="31.771" y1="12.603" x2="32.285" y2="12.603"/>
	<line fill="none" x1="9.911" y1="18.431" x2="10.422" y2="18.431"/>
	
		<line fill="none" stroke="#3B3E45" stroke-width="1.5" stroke-linecap="round" stroke-linejoin="round" stroke-miterlimit="10" x1="9.911" y1="18.431" x2="10.422" y2="18.431"/>
	<line fill="none" x1="12.516" y1="18.431" x2="13.027" y2="18.431"/>
	
		<line fill="none" stroke="#3B3E45" stroke-width="1.5" stroke-linecap="round" stroke-linejoin="round" stroke-miterlimit="10" x1="12.516" y1="18.431" x2="13.027" y2="18.431"/>
	<line fill="none" x1="15.122" y1="18.431" x2="15.635" y2="18.431"/>
	
		<line fill="none" stroke="#3B3E45" stroke-width="1.5" stroke-linecap="round" stroke-linejoin="round" stroke-miterlimit="10" x1="15.122" y1="18.431" x2="15.635" y2="18.431"/>
</g>
</svg>
