<?xml version="1.0" encoding="utf-8"?>
<!-- Generator: Adobe Illustrator 16.0.0, SVG Export Plug-In . SVG Version: 6.00 Build 0)  -->
<!DOCTYPE svg PUBLIC "-//W3C//DTD SVG 1.1//EN" "http://www.w3.org/Graphics/SVG/1.1/DTD/svg11.dtd">
<svg version="1.1" id="Layer_1" xmlns="http://www.w3.org/2000/svg" xmlns:xlink="http://www.w3.org/1999/xlink" x="0px" y="0px"
	 width="44px" height="44px" viewBox="0 0 44 44" enable-background="new 0 0 44 44" xml:space="preserve">
<g>
	<g>
		<g>
			<defs>
				<rect id="SVGID_1_" x="9.129" y="5.833" width="25.742" height="25.742"/>
			</defs>
			<clipPath id="SVGID_2_">
				<use xlink:href="#SVGID_1_"  overflow="visible"/>
			</clipPath>
			<path clip-path="url(#SVGID_2_)" fill="#DADBE1" d="M34.871,18.704c0,7.109-5.762,12.871-12.872,12.871
				c-7.108,0-12.87-5.762-12.87-12.871c0-7.109,5.762-12.871,12.87-12.871C29.109,5.833,34.871,11.594,34.871,18.704"/>
		</g>
	</g>
	<polygon fill="#FFFFFF" points="28.293,14.301 42.535,18.118 36.242,21.589 22.001,17.773 	"/>
	
		<polygon fill="none" stroke="#3B3E45" stroke-width="1.5" stroke-linecap="round" stroke-linejoin="round" stroke-miterlimit="10" points="
		28.293,14.301 42.535,18.118 36.242,21.589 22.001,17.773 	"/>
	<polygon fill="#FFFFFF" points="15.709,14.301 1.465,18.118 7.758,21.589 22,17.773 	"/>
	
		<polygon fill="none" stroke="#3B3E45" stroke-width="1.5" stroke-linecap="round" stroke-linejoin="round" stroke-miterlimit="10" points="
		15.709,14.301 1.465,18.118 7.758,21.589 22,17.773 	"/>
	<polygon fill="#DADBE1" points="22.001,17.769 36.242,21.586 36.242,35.957 22.001,30.963 	"/>
	
		<polygon fill="none" stroke="#3B3E45" stroke-width="1.5" stroke-linecap="round" stroke-linejoin="round" stroke-miterlimit="10" points="
		22.001,17.769 36.242,21.586 36.242,35.957 22.001,30.963 	"/>
	<polygon fill="#DADBE1" points="22.001,17.769 7.758,21.586 7.758,35.957 22.001,30.963 	"/>
	
		<polygon fill="none" stroke="#3B3E45" stroke-width="1.5" stroke-linecap="round" stroke-linejoin="round" stroke-miterlimit="10" points="
		22.001,17.769 7.758,21.586 7.758,35.957 22.001,30.963 	"/>
	<polygon fill="#DADBE1" points="22.001,26.5 13.014,24.092 13.014,13.074 22.001,15.482 	"/>
	
		<polygon fill="none" stroke="#3B3E45" stroke-width="1.5" stroke-linecap="round" stroke-linejoin="round" stroke-miterlimit="10" points="
		22.001,26.5 13.014,24.092 13.014,13.074 22.001,15.482 	"/>
	<polygon fill="#DADBE1" points="22.001,26.5 30.986,24.092 30.986,13.074 22.001,15.482 	"/>
	
		<polygon fill="none" stroke="#3B3E45" stroke-width="1.5" stroke-linecap="round" stroke-linejoin="round" stroke-miterlimit="10" points="
		22.001,26.5 30.986,24.092 30.986,13.074 22.001,15.482 	"/>
	<polygon fill="#DADBE1" points="13.014,13.074 22.002,15.482 30.988,13.074 22.002,10.663 	"/>
	
		<polygon fill="none" stroke="#3B3E45" stroke-width="1.5" stroke-linecap="round" stroke-linejoin="round" stroke-miterlimit="10" points="
		13.014,13.074 22.002,15.482 30.988,13.074 22.002,10.663 	"/>
	<polygon fill="#FFFFFF" points="22.001,39.777 7.758,35.963 7.758,21.589 22.001,25.406 	"/>
	
		<polygon fill="none" stroke="#3B3E45" stroke-width="1.5" stroke-linecap="round" stroke-linejoin="round" stroke-miterlimit="10" points="
		22.001,39.777 7.758,35.963 7.758,21.589 22.001,25.406 	"/>
	<polygon fill="#FFFFFF" points="36.242,21.592 36.242,35.961 21.999,39.777 21.999,25.408 	"/>
	
		<polygon fill="none" stroke="#3B3E45" stroke-width="1.5" stroke-linecap="round" stroke-linejoin="round" stroke-miterlimit="10" points="
		36.242,21.592 36.242,35.961 21.999,39.777 21.999,25.408 	"/>
	<line fill="#FF7F79" x1="22.001" y1="8.009" x2="22.001" y2="4.222"/>
	
		<line fill="none" stroke="#3B3E45" stroke-width="1.5" stroke-linecap="round" stroke-linejoin="round" stroke-miterlimit="10" x1="22.001" y1="8.009" x2="22.001" y2="4.222"/>
	<line fill="#FF7F79" x1="17.563" y1="8.867" x2="16.093" y2="5.376"/>
	
		<line fill="none" stroke="#3B3E45" stroke-width="1.5" stroke-linecap="round" stroke-linejoin="round" stroke-miterlimit="10" x1="17.563" y1="8.867" x2="16.093" y2="5.376"/>
	<line fill="#FF7F79" x1="26.438" y1="8.867" x2="27.908" y2="5.376"/>
	
		<line fill="none" stroke="#3B3E45" stroke-width="1.5" stroke-linecap="round" stroke-linejoin="round" stroke-miterlimit="10" x1="26.438" y1="8.867" x2="27.908" y2="5.376"/>
	<g>
		<g>
			<defs>
				<rect id="SVGID_3_" x="21.999" y="21.592" width="14.243" height="10.708"/>
			</defs>
			<clipPath id="SVGID_4_">
				<use xlink:href="#SVGID_3_"  overflow="visible"/>
			</clipPath>
			<polygon clip-path="url(#SVGID_4_)" fill="#DADBE1" points="36.242,21.592 36.242,29.584 26.098,32.301 21.999,25.408 			"/>
		</g>
	</g>
	<g>
		<g>
			<defs>
				<rect id="SVGID_5_" x="7.756" y="21.592" width="14.243" height="10.708"/>
			</defs>
			<clipPath id="SVGID_6_">
				<use xlink:href="#SVGID_5_"  overflow="visible"/>
			</clipPath>
			<polygon clip-path="url(#SVGID_6_)" fill="#DADBE1" points="7.756,21.592 7.756,29.584 17.901,32.301 21.999,25.408 			"/>
		</g>
	</g>
	<polygon fill="#FFFFFF" points="28.293,28.877 42.535,25.063 36.242,21.589 22.001,25.406 	"/>
	
		<polygon fill="none" stroke="#3B3E45" stroke-width="1.5" stroke-linecap="round" stroke-linejoin="round" stroke-miterlimit="10" points="
		28.293,28.877 42.535,25.063 36.242,21.589 22.001,25.406 	"/>
	<polygon fill="#FFFFFF" points="15.709,28.877 1.465,25.063 7.758,21.589 22,25.406 	"/>
	
		<polygon fill="none" stroke="#3B3E45" stroke-width="1.5" stroke-linecap="round" stroke-linejoin="round" stroke-miterlimit="10" points="
		15.709,28.877 1.465,25.063 7.758,21.589 22,25.406 	"/>
</g>
</svg>
