<?xml version="1.0" encoding="utf-8"?>
<!-- Generator: Adobe Illustrator 16.0.0, SVG Export Plug-In . SVG Version: 6.00 Build 0)  -->
<!DOCTYPE svg PUBLIC "-//W3C//DTD SVG 1.1//EN" "http://www.w3.org/Graphics/SVG/1.1/DTD/svg11.dtd">
<svg version="1.1" id="Layer_1" xmlns="http://www.w3.org/2000/svg" xmlns:xlink="http://www.w3.org/1999/xlink" x="0px" y="0px"
	 width="44px" height="44px" viewBox="0 0 44 44" enable-background="new 0 0 44 44" xml:space="preserve">
<g>
	<path fill="#DADBE1" d="M38.186,17.152c0,6.125-4.965,11.092-11.092,11.092c-6.124,0-11.089-4.967-11.089-11.092
		s4.966-11.09,11.089-11.09C33.221,6.063,38.186,11.027,38.186,17.152"/>
	<polygon fill="#FFFFFF" points="16.605,38.438 31.328,10.931 13.482,29.773 	"/>
	
		<polygon fill="none" stroke="#3B3E45" stroke-width="1.5" stroke-linecap="round" stroke-linejoin="round" stroke-miterlimit="10" points="
		16.605,38.438 31.328,10.931 13.482,29.773 	"/>
	<polygon fill="#FFFFFF" points="28.418,34.736 5.445,27.104 31.328,10.931 	"/>
	
		<polygon fill="none" stroke="#3B3E45" stroke-width="1.5" stroke-linecap="round" stroke-linejoin="round" stroke-miterlimit="10" points="
		28.418,34.736 5.445,27.104 31.328,10.931 	"/>
	<polygon fill="#DADBE1" points="13.482,29.773 16.605,38.438 17.751,31.076 31.328,10.931 	"/>
	
		<polygon fill="none" stroke="#3B3E45" stroke-width="1.5" stroke-linecap="round" stroke-linejoin="round" stroke-miterlimit="10" points="
		13.482,29.773 16.605,38.438 17.751,31.076 31.328,10.931 	"/>
	<line fill="#FF7F79" x1="22.895" y1="6.543" x2="22.895" y2="5.563"/>
	
		<line fill="none" stroke="#3B3E45" stroke-width="1.5" stroke-linecap="round" stroke-linejoin="round" stroke-miterlimit="10" x1="22.895" y1="6.543" x2="22.895" y2="5.563"/>
	<line fill="#FF7F79" x1="21.433" y1="8.006" x2="20.452" y2="8.006"/>
	
		<line fill="none" stroke="#3B3E45" stroke-width="1.5" stroke-linecap="round" stroke-linejoin="round" stroke-miterlimit="10" x1="21.433" y1="8.006" x2="20.452" y2="8.006"/>
	<line fill="#FF7F79" x1="22.895" y1="9.469" x2="22.895" y2="10.449"/>
	
		<line fill="none" stroke="#3B3E45" stroke-width="1.5" stroke-linecap="round" stroke-linejoin="round" stroke-miterlimit="10" x1="22.895" y1="9.469" x2="22.895" y2="10.449"/>
	<line fill="#FF7F79" x1="24.357" y1="8.006" x2="25.338" y2="8.006"/>
	
		<line fill="none" stroke="#3B3E45" stroke-width="1.5" stroke-linecap="round" stroke-linejoin="round" stroke-miterlimit="10" x1="24.357" y1="8.006" x2="25.338" y2="8.006"/>
	<line fill="#FF7F79" x1="36.713" y1="16.634" x2="36.713" y2="15.895"/>
	
		<line fill="none" stroke="#3B3E45" stroke-width="1.5" stroke-linecap="round" stroke-linejoin="round" stroke-miterlimit="10" x1="36.713" y1="16.634" x2="36.713" y2="15.895"/>
	<line fill="#FF7F79" x1="35.609" y1="17.736" x2="34.871" y2="17.736"/>
	
		<line fill="none" stroke="#3B3E45" stroke-width="1.5" stroke-linecap="round" stroke-linejoin="round" stroke-miterlimit="10" x1="35.609" y1="17.736" x2="34.871" y2="17.736"/>
	<line fill="#FF7F79" x1="36.713" y1="18.84" x2="36.713" y2="19.579"/>
	
		<line fill="none" stroke="#3B3E45" stroke-width="1.5" stroke-linecap="round" stroke-linejoin="round" stroke-miterlimit="10" x1="36.713" y1="18.84" x2="36.713" y2="19.579"/>
	<line fill="#FF7F79" x1="37.814" y1="17.736" x2="38.555" y2="17.736"/>
	
		<line fill="none" stroke="#3B3E45" stroke-width="1.5" stroke-linecap="round" stroke-linejoin="round" stroke-miterlimit="10" x1="37.814" y1="17.736" x2="38.555" y2="17.736"/>
</g>
</svg>
