<?xml version="1.0" encoding="utf-8"?>
<!-- Generator: Adobe Illustrator 16.0.0, SVG Export Plug-In . SVG Version: 6.00 Build 0)  -->
<!DOCTYPE svg PUBLIC "-//W3C//DTD SVG 1.1//EN" "http://www.w3.org/Graphics/SVG/1.1/DTD/svg11.dtd">
<svg version="1.1" id="Layer_1" xmlns="http://www.w3.org/2000/svg" xmlns:xlink="http://www.w3.org/1999/xlink" x="0px" y="0px"
	 width="40px" height="40px" viewBox="0 0 40 40" enable-background="new 0 0 40 40" xml:space="preserve">
<g>
	<g>
		<path d="M26.377,30.75H9.635c-0.276,0-0.5-0.225-0.5-0.5V15.066c0-0.198,0.117-0.377,0.297-0.457
			c0.181-0.079,0.392-0.046,0.539,0.086L26.713,29.88c0.153,0.14,0.205,0.356,0.131,0.55S26.584,30.75,26.377,30.75z M10.135,29.75
			h14.946L10.135,16.194V29.75z"/>
	</g>
	<path d="M37.066,32.438L7.022,3.937C6.576,3.513,5.879,3.25,5.205,3.25c-0.244,0-0.803,0.042-1.175,0.203
		C3.087,3.858,2.136,4.726,2.136,5.75v28.5c0,1.45,1.947,2.5,3.259,2.5h30c1.016,0,1.916-0.618,2.297-1.572
		C38.064,34.248,37.814,33.146,37.066,32.438z M36.762,34.807c-0.228,0.573-0.765,0.943-1.367,0.943h-30
		c-0.933,0-2.259-0.775-2.259-1.5v-1.5h1.999c0.276,0,0.5-0.225,0.5-0.5s-0.224-0.5-0.5-0.5H3.136v-5h1.999
		c0.276,0,0.5-0.225,0.5-0.5s-0.224-0.5-0.5-0.5H3.136v-5h1.999c0.276,0,0.5-0.225,0.5-0.5c0-0.276-0.224-0.5-0.5-0.5H3.136v-5
		h1.999c0.276,0,0.5-0.224,0.5-0.5s-0.224-0.5-0.5-0.5H3.136v-5h1.999c0.276,0,0.5-0.224,0.5-0.5s-0.224-0.5-0.5-0.5H3.136v-2
		c0-0.516,0.655-1.106,1.289-1.378C4.591,4.3,4.969,4.25,5.205,4.25c0.415,0,0.869,0.166,1.129,0.413l30.045,28.5
		C36.831,33.592,36.984,34.252,36.762,34.807z"/>
</g>
</svg>
