<?xml version="1.0" encoding="utf-8"?>
<!-- Generator: Adobe Illustrator 16.0.0, SVG Export Plug-In . SVG Version: 6.00 Build 0)  -->
<!DOCTYPE svg PUBLIC "-//W3C//DTD SVG 1.1//EN" "http://www.w3.org/Graphics/SVG/1.1/DTD/svg11.dtd">
<svg version="1.1" id="Layer_1" xmlns="http://www.w3.org/2000/svg" xmlns:xlink="http://www.w3.org/1999/xlink" x="0px" y="0px"
	 width="40px" height="40px" viewBox="0 0 40 40" enable-background="new 0 0 40 40" xml:space="preserve">
<g>
	<g>
		<path d="M36,34.5H4c-1.378,0-2.5-1.121-2.5-2.5V8c0-1.378,1.122-2.5,2.5-2.5h32c1.379,0,2.5,1.122,2.5,2.5v24
			C38.5,33.379,37.379,34.5,36,34.5z M4,6.5C3.173,6.5,2.5,7.173,2.5,8v24c0,0.827,0.673,1.5,1.5,1.5h32c0.827,0,1.5-0.673,1.5-1.5
			V8c0-0.827-0.673-1.5-1.5-1.5H4z"/>
	</g>
	<g>
		<g>
			<path d="M28,25.869c-0.11,0-0.22-0.036-0.313-0.109c-0.216-0.173-0.25-0.487-0.078-0.703l3.75-4.688l-3.75-4.688
				c-0.172-0.216-0.138-0.53,0.078-0.703c0.218-0.172,0.531-0.136,0.703,0.078l4,5v0.625l-4,5
				C28.292,25.805,28.146,25.869,28,25.869z"/>
		</g>
		<g>
			<path d="M12,25.869c-0.147,0-0.292-0.064-0.391-0.188l-4-5v-0.625l4-5c0.173-0.214,0.488-0.25,0.703-0.078
				c0.215,0.173,0.25,0.487,0.078,0.703l-3.75,4.688l3.75,4.688c0.172,0.216,0.137,0.53-0.078,0.703
				C12.22,25.833,12.11,25.869,12,25.869z"/>
		</g>
		<g>
			<path d="M17,25.869c-0.087,0-0.176-0.022-0.257-0.071c-0.237-0.142-0.313-0.449-0.171-0.686l6-10
				c0.143-0.238,0.452-0.312,0.686-0.171c0.237,0.142,0.314,0.449,0.172,0.686l-6,10C17.335,25.782,17.169,25.869,17,25.869z"/>
		</g>
	</g>
</g>
</svg>
