<?xml version="1.0" encoding="utf-8"?>
<!-- Generator: Adobe Illustrator 16.0.0, SVG Export Plug-In . SVG Version: 6.00 Build 0)  -->
<!DOCTYPE svg PUBLIC "-//W3C//DTD SVG 1.1//EN" "http://www.w3.org/Graphics/SVG/1.1/DTD/svg11.dtd">
<svg version="1.1" id="Layer_1" xmlns="http://www.w3.org/2000/svg" xmlns:xlink="http://www.w3.org/1999/xlink" x="0px" y="0px"
	 width="40px" height="40px" viewBox="0 0 40 40" enable-background="new 0 0 40 40" xml:space="preserve">
<g>
	<g>
		<circle cx="16.339" cy="33.887" r="1.5"/>
	</g>
	<g>
		<path fill="none" d="M23,16c0-1.378,1.121-2.5,2.5-2.5H30V4.31c0-0.998-0.813-1.81-1.811-1.81H4.81C3.812,2.5,3,3.312,3,4.31
			v31.379C3,36.688,3.812,37.5,4.81,37.5h18.703C23.195,37.081,23,36.565,23,36V16z"/>
		<path d="M23.513,37.5H4.81C3.812,37.5,3,36.688,3,35.689V4.31C3,3.312,3.812,2.5,4.81,2.5h23.379C29.188,2.5,30,3.312,30,4.31
			v9.19h1V4.31c0-1.549-1.261-2.81-2.811-2.81H4.81C3.261,1.5,2,2.761,2,4.31v31.379c0,1.55,1.261,2.811,2.81,2.811H25.5
			C24.687,38.5,23.969,38.104,23.513,37.5z"/>
		<path d="M35.5,13.5H31h-1h-4.5c-1.379,0-2.5,1.122-2.5,2.5v20c0,0.565,0.195,1.081,0.513,1.5c0.456,0.604,1.174,1,1.987,1h2.689
			H35.5c1.379,0,2.5-1.121,2.5-2.5V16C38,14.622,36.879,13.5,35.5,13.5z M37,36c0,0.827-0.673,1.5-1.5,1.5h-5.179h-2.132H25.5
			c-0.827,0-1.5-0.673-1.5-1.5V16c0-0.827,0.673-1.5,1.5-1.5H30h1h4.5c0.827,0,1.5,0.673,1.5,1.5V36z"/>
	</g>
	<g>
		<circle cx="30.507" cy="33.887" r="1.5"/>
	</g>
</g>
</svg>
