<?xml version="1.0" encoding="utf-8"?>
<!-- Generator: Adobe Illustrator 16.0.0, SVG Export Plug-In . SVG Version: 6.00 Build 0)  -->
<!DOCTYPE svg PUBLIC "-//W3C//DTD SVG 1.1//EN" "http://www.w3.org/Graphics/SVG/1.1/DTD/svg11.dtd">
<svg version="1.1" id="Layer_1" xmlns="http://www.w3.org/2000/svg" xmlns:xlink="http://www.w3.org/1999/xlink" x="0px" y="0px"
	 width="40px" height="40px" viewBox="0 0 40 40" enable-background="new 0 0 40 40" xml:space="preserve">
<polyline fill="#EEF1F3" points="0,0 40,0 40,40 "/>
<path fill="#646873" d="M33.16,13.634L30.33,12l2.83-1.634C33.639,10.09,33.803,9.479,33.526,9c-0.277-0.479-0.89-0.643-1.366-0.366
	l-2.83,1.634V7c0-0.552-0.447-1-1-1s-1,0.448-1,1v3.268L24.5,8.634C24.022,8.357,23.41,8.521,23.134,9
	c-0.276,0.479-0.112,1.09,0.366,1.366L26.33,12l-2.83,1.634c-0.479,0.276-0.643,0.888-0.366,1.366c0.186,0.321,0.521,0.5,0.867,0.5
	c0.17,0,0.342-0.043,0.499-0.134l2.83-1.634V17c0,0.552,0.447,1,1,1s1-0.448,1-1v-3.268l2.83,1.634
	c0.157,0.091,0.329,0.134,0.499,0.134c0.346,0,0.682-0.179,0.867-0.5C33.803,14.521,33.639,13.91,33.16,13.634z"/>
</svg>
